<?xml version="1.0" encoding="UTF-8" standalone="no"?>
<!-- Created with Inkscape (http://www.inkscape.org/) -->

<svg
   version="1.1"
   id="svg2"
   width="582.65332"
   height="532.22668"
   viewBox="0 0 582.65332 532.22668"
   sodipodi:docname="5003677.eps"
   xmlns:inkscape="http://www.inkscape.org/namespaces/inkscape"
   xmlns:sodipodi="http://sodipodi.sourceforge.net/DTD/sodipodi-0.dtd"
   xmlns="http://www.w3.org/2000/svg"
   xmlns:svg="http://www.w3.org/2000/svg">
  <defs
     id="defs6" />
  <sodipodi:namedview
     id="namedview4"
     pagecolor="#ffffff"
     bordercolor="#000000"
     borderopacity="0.25"
     inkscape:showpageshadow="2"
     inkscape:pageopacity="0.0"
     inkscape:pagecheckerboard="0"
     inkscape:deskcolor="#d1d1d1" />
  <g
     id="g8"
     inkscape:groupmode="layer"
     inkscape:label="ink_ext_XXXXXX"
     transform="matrix(1.3333333,0,0,-1.3333333,0,532.22667)">
    <g
       id="g10"
       transform="scale(0.1)">
      <path
         d="m 1848.55,2635.53 c -25.13,413.62 -328.2,775.14 -758.33,853.45 -488.771,88.99 -965.4,-230.46 -1069.4856,-716.24 -82.961,-387.17 89.4106,-769.14 403.1176,-971.45 74.566,-48.1 120.656,-128.96 126.035,-217.52 25.133,-413.62 328.211,-775.141 758.333,-853.461 488.77,-88.977 965.4,230.472 1069.49,716.251 82.95,387.18 -89.42,769.14 -403.12,971.46 -74.57,48.09 -120.66,128.94 -126.04,217.51"
         style="fill:#d3edfb;fill-opacity:1;fill-rule:nonzero;stroke:none"
         id="path12" />
      <path
         d="M 1818.69,92.3008 C 1818.69,72.2617 1688.62,56 1528.16,56 c -160.45,0 -290.52,16.2617 -290.52,36.3008 0,20.0512 130.07,36.3012 290.52,36.3012 160.46,0 290.53,-16.25 290.53,-36.3012"
         style="fill:#e2e2e0;fill-opacity:1;fill-rule:nonzero;stroke:none"
         id="path14" />
      <path
         d="m 1735.67,440.32 c 0,-18.082 -92.9,-32.738 -207.51,-32.738 -114.6,0 -207.51,14.656 -207.51,32.738 0,18.09 92.91,32.762 207.51,32.762 114.61,0 207.51,-14.672 207.51,-32.762"
         style="fill:#e46e52;fill-opacity:1;fill-rule:nonzero;stroke:none"
         id="path16" />
      <path
         d="m 1494.86,844.469 c 0,0 102.03,136.812 63.16,186.511 -38.87,49.69 -28.19,115.86 -96.06,171.46 -67.87,55.62 -83.83,40.51 -192.96,34.71 -109.13,-5.81 -142.38,37.8 -212.32,-39.82 -68.567,-76.08 -35.87,-107.99 80.72,-92.98 69.8,9 147.38,42.62 193.14,-58.57 56.06,-123.928 164.32,-201.311 164.32,-201.311"
         style="fill:#89c989;fill-opacity:1;fill-rule:nonzero;stroke:none"
         id="path18" />
      <path
         d="m 1432.27,958.52 c -35.62,56.93 -53.62,88.94 -94.13,126.93 -27.24,25.55 -47.41,44.45 -79.86,57.04 -18.7,7.26 -54.17,17.33 -178.27,-7.13 -16.34,-3.22 -35.42,-7.31 -56.58,-12.38 9.48,-20.69 48.49,-27.06 113.97,-18.63 69.8,9 147.38,42.62 193.14,-58.57 56.06,-123.928 164.32,-201.311 164.32,-201.311 0,0 2.34,3.152 6.12,8.562 -15.65,23.117 -37.89,56.239 -68.71,105.489"
         style="fill:#1a2545;fill-opacity:1;fill-rule:nonzero;stroke:none"
         id="path20" />
      <path
         d="m 1600.28,824.992 c -42.66,11.809 -34.16,103.188 14.74,158.559 33.78,38.249 84.55,18.209 134.99,68.929 35.62,35.83 26.08,61.69 58.89,73.2 38.77,13.62 63.92,-18.33 131.74,-19.05 65.29,-0.7 73.36,28.55 115.56,21.47 77.4,-13 161.77,-130.139 128.86,-175.018 -20.14,-27.473 -104.47,32.969 -168.43,-2.031 -31.88,-17.442 -25.03,-39.039 -58.15,-51.781 -46.39,-17.848 -81.74,16.089 -135.38,15.281 -103.69,-1.571 -175.13,-102.75 -222.82,-89.559"
         style="fill:#89c989;fill-opacity:1;fill-rule:nonzero;stroke:none"
         id="path22" />
      <path
         d="m 1505.08,204.082 c -5.84,84.367 -6.5,169.137 -2.51,253.719 1.84,42.308 5.27,84.558 10.47,126.64 5.22,42.059 11.85,84.039 21.8,125.43 10.47,41.027 24.38,82.367 46.78,118.75 21.37,36.801 46.4,71.84 76.93,101.699 60.56,59.75 136.95,104.26 219.81,122.13 -20.53,-5.05 -40.41,-12.34 -59.75,-20.69 -9.77,-3.96 -19.1,-8.9 -28.57,-13.47 -9.27,-4.97 -18.5,-10.05 -27.53,-15.42 -36.08,-21.608 -69.28,-47.858 -98.49,-77.948 -29.14,-30.192 -53.86,-64.363 -74.48,-100.774 -21.81,-36.027 -34.82,-75.929 -45,-116.687 -19.89,-81.699 -28.68,-165.969 -34.33,-250.09 -2.95,-42.101 -4.5,-84.301 -5.21,-126.531 -1.03,-42.231 -0.81,-84.481 0.08,-126.758"
         style="fill:#1a2545;fill-opacity:1;fill-rule:nonzero;stroke:none"
         id="path24" />
      <path
         d="m 1499.39,320.09 c -2.78,70.719 -4.3,141.461 -5.57,212.199 l -2.64,212.231 c -0.39,70.722 -1.01,141.468 -3.86,212.011 -1.58,35.239 -3.6,70.569 -9.98,105.129 -3.18,17.23 -7.74,34.36 -16.12,49.72 -8.15,15.52 -21.82,27.62 -37.61,35.6 8.06,-3.62 15.81,-8.11 22.69,-13.82 6.96,-5.64 12.49,-12.87 17.21,-20.45 9.28,-15.41 14.66,-32.73 18.64,-50.05 7.44,-34.9 10.32,-70.379 12.86,-105.711 4.44,-70.777 4.98,-141.578 6.16,-212.328 0.25,-70.769 0.65,-141.519 0.31,-212.269 -0.33,-70.75 -0.75,-141.5 -2.09,-212.262"
         style="fill:#1a2545;fill-opacity:1;fill-rule:nonzero;stroke:none"
         id="path26" />
      <path
         d="m 1528.12,468.461 c 0,0 -49.28,132.301 -4.95,162.508 44.33,30.203 53.77,85.402 122.73,113.34 68.96,27.953 77.54,12.101 162.63,-18.727 85.08,-30.82 123.3,-4.133 157.81,-82.66 33.83,-77 -0.78,-94.543 -89.29,-54.59 -52.99,23.918 -105.48,69.297 -169.24,-0.223 -78.08,-85.129 -179.69,-119.648 -179.69,-119.648"
         style="fill:#89c989;fill-opacity:1;fill-rule:nonzero;stroke:none"
         id="path28" />
      <path
         d="m 1527.1,205.242 c -6.09,39.528 -9.54,79.477 -10.58,119.547 -1.02,40.082 1.07,80.293 6.11,120.203 5.88,39.738 14.77,79.367 30.27,116.688 7.75,18.621 17.2,36.511 28.17,53.422 5.46,8.449 12.25,16 18.28,23.988 6.63,7.531 14.04,14.371 21.07,21.422 -6.27,-7.832 -12.96,-15.223 -19,-23.082 -5.38,-8.379 -11.47,-16.231 -16.2,-24.938 -9.94,-17.14 -18.43,-35.043 -25.17,-53.633 -13.69,-37.089 -22.49,-75.918 -27.52,-115.23 -5.8,-39.238 -7.73,-79.008 -8.36,-118.789 l -0.09,-29.86 0.66,-29.878 0.95,-29.922 1.41,-29.938"
         style="fill:#1a2545;fill-opacity:1;fill-rule:nonzero;stroke:none"
         id="path30" />
      <path
         d="m 1528.16,407.582 c -109,0 -198.32,13.27 -206.78,30.117 L 1416.33,92.3008 H 1640 l 94.95,345.3982 c -8.47,-16.847 -97.78,-30.117 -206.79,-30.117"
         style="fill:#1a2545;fill-opacity:1;fill-rule:nonzero;stroke:none"
         id="path32" />
      <path
         d="m 1822.69,914.461 c 53.64,0.809 88.99,-33.129 135.39,-15.281 33.12,12.75 26.26,34.351 58.14,51.8 63.96,34.989 148.29,-25.441 168.43,2.02 3.21,4.379 5.28,9.469 6.37,15.082 -53.36,31.928 -134.8,51.958 -176.84,23.637 -31.02,-20.899 -39.98,-67.758 -81.76,-74.16 -18.69,-2.86 -29.42,4.589 -51.34,11.41 0,0 -63.49,19.75 -142.61,-1.899 -59.03,-16.148 -118.46,-65.328 -136.54,-102.582 47.68,-9.84 118.55,88.434 220.76,89.973"
         style="fill:#1a2545;fill-opacity:1;fill-rule:nonzero;stroke:none"
         id="path34" />
      <path
         d="m 1902.4,603.898 c -76.27,24.711 -81.55,48.684 -123.59,45.633 -26.04,-1.883 -50.95,-16.461 -100.78,-45.633 -34.03,-19.929 -51.55,-30.179 -70.35,-47.527 -18.71,-17.281 -46.92,-49.223 -62.62,-81.25 32.17,13.649 104.1,49.039 162.75,112.988 63.76,69.52 116.25,24.141 169.24,0.223 59.87,-27.023 94.97,-27.641 101.02,-1.453 -17.16,2.703 -40.77,5.711 -75.67,17.019"
         style="fill:#1a2545;fill-opacity:1;fill-rule:nonzero;stroke:none"
         id="path36" />
      <path
         d="m 1643.9,3161.06 v 0 777.63 c 0,29.25 23.71,52.96 52.96,52.96 h 2391.61 c 29.24,0 52.96,-23.71 52.96,-52.96 v -85.21 c 0,29.25 -23.72,52.96 -52.96,52.96 H 1696.86 c -29.25,0 -52.96,-23.71 -52.96,-52.96 v -692.42"
         style="fill:#c1e1f6;fill-opacity:1;fill-rule:nonzero;stroke:none"
         id="path38" />
      <path
         d="M 4088.47,1822.8 H 1696.86 c -29.25,0 -52.96,23.71 -52.96,52.96 v 1977.72 c 0,29.25 23.71,52.96 52.96,52.96 h 2391.61 c 29.24,0 52.96,-23.71 52.96,-52.96 V 1875.76 c 0,-29.25 -23.72,-52.96 -52.96,-52.96"
         style="fill:#9eccef;fill-opacity:1;fill-rule:nonzero;stroke:none"
         id="path40" />
      <path
         d="m 2104.01,3167.46 21.13,-292.71 c 1.12,-15.52 20.03,-22.39 30.78,-11.14 81.59,85.42 332.68,326.41 617.59,383.36 347.91,69.52 1023.35,-69.53 1023.35,-69.53 0,0 -388.95,181.27 -908.26,242.3 -364.45,42.83 -719.43,-195.57 -777.15,-236.42 -5.12,-3.62 -7.9,-9.61 -7.44,-15.86"
         style="fill:#4b63b7;fill-opacity:1;fill-rule:nonzero;stroke:none"
         id="path42" />
      <path
         d="m 2385.72,2440.45 c -0.97,-0.42 -0.83,-0.46 -0.76,-0.51 l 0.27,-0.14 1.12,-0.03 c 0.86,0.03 1.83,0.15 2.86,0.31 2.03,0.3 4.2,0.8 6.38,1.35 4.35,1.17 8.66,2.76 12.83,4.61 8.31,3.75 15.83,8.68 22.14,15.13 12.95,12.45 21.07,33.11 21.74,58.17 0.95,24.94 -4.82,52.55 -13.77,79.49 -8.97,27.06 -21.18,53.82 -34.87,80.02 21.62,-20.13 42.46,-41.59 61.27,-65.78 18.68,-24.22 35.85,-51.09 46.53,-83.76 5.24,-16.3 8.87,-34.09 9.02,-53.19 0.19,-19.03 -3.38,-39.27 -11.09,-58.38 -7.59,-19.2 -19.23,-36.86 -33.19,-51.89 -6.99,-7.51 -14.52,-14.48 -22.65,-20.83 -4.1,-3.16 -8.3,-6.22 -12.79,-9.14 -2.24,-1.45 -4.56,-2.9 -7.04,-4.32 l -3.92,-2.16 -2.26,-1.15 c -0.78,-0.37 -1.49,-0.74 -3.33,-1.46 l -38.49,113.66"
         style="fill:#4b63b7;fill-opacity:1;fill-rule:nonzero;stroke:none"
         id="path44" />
      <path
         d="m 2456.17,2509.12 c -1.16,-0.7 0.82,-0.35 1.58,-0.36 1.13,0.12 2.26,0.23 3.51,0.46 2.43,0.38 5.01,0.93 7.56,1.58 5.09,1.31 10.32,2.87 15.22,4.88 9.98,3.88 19.04,9.06 27.08,15.32 15.96,12.4 27.37,30.94 30.83,55.77 3.4,24.62 -0.42,53.27 -9.09,81.12 -8.51,28.01 -21.02,55.74 -35.33,82.73 22.23,-20.93 43.51,-43.46 62.16,-69.31 18.59,-25.76 34.65,-55.39 42.16,-91.05 3.75,-17.76 4.44,-37.24 1.38,-56.94 -3.03,-19.67 -10.15,-39.44 -20.59,-56.97 -10.39,-17.58 -23.55,-33.31 -38.31,-46.63 -7.36,-6.79 -15.18,-12.85 -23.38,-18.61 -4.12,-2.88 -8.33,-5.61 -12.81,-8.26 -2.18,-1.33 -4.54,-2.64 -6.91,-3.92 -2.74,-1.4 -4.29,-2.38 -9.02,-4.27 l -36.04,114.46"
         style="fill:#4b63b7;fill-opacity:1;fill-rule:nonzero;stroke:none"
         id="path46" />
      <path
         d="m 2543.13,2597.31 c -0.5,-0.42 1.53,-0.28 2.57,-0.34 l 4.11,0.13 c 2.85,0.16 5.79,0.42 8.74,0.74 5.92,0.64 11.81,1.71 17.68,2.9 11.62,2.56 22.81,6.14 32.89,10.86 20.11,9.57 35.42,23.17 43.16,45.03 3.97,10.83 5.46,23.62 4.92,37.09 -0.18,13.52 -2.98,27.61 -6.49,41.8 -7.65,28.34 -20.19,56.53 -34.71,83.8 22.44,-21.25 43.85,-44.23 61.98,-71.29 8.77,-13.7 17.2,-28.2 23.16,-44.63 6.25,-16.21 10.65,-34.3 10.73,-53.81 0.28,-19.4 -3.83,-40.02 -12.34,-58.84 -8.43,-18.85 -20.73,-35.77 -34.66,-49.8 -13.96,-14.13 -29.41,-25.87 -45.54,-35.96 -8.11,-4.94 -16.37,-9.62 -24.94,-13.78 -4.28,-2.09 -8.63,-4.11 -13.14,-6.02 l -6.93,-2.83 c -2.67,-0.96 -4.35,-1.73 -8.6,-2.9 l -22.59,117.85"
         style="fill:#4b63b7;fill-opacity:1;fill-rule:nonzero;stroke:none"
         id="path48" />
      <path
         d="m 2624.36,2630.87 c 0.15,-0.28 2.35,-0.04 3.77,0.04 l 5,0.48 c 3.44,0.4 6.93,0.88 10.45,1.45 7.02,1.18 14.15,2.48 21.13,4.21 14,3.34 27.77,7.64 40.62,13.13 25.73,10.97 48.22,26.24 62.18,48.01 14.05,21.57 18.12,51.68 12.14,82.84 -5.45,31.29 -19.13,62.6 -35.58,92.25 24.33,-23.68 47.32,-49.92 63.91,-82.38 8.64,-16 14.78,-34.07 18.08,-53.5 3.24,-19.39 2.75,-40.61 -2.66,-61.06 -5.31,-20.46 -15.03,-39.78 -27.1,-56.69 -12.09,-16.97 -26.39,-31.73 -41.6,-44.73 -15.26,-13.03 -31.5,-24.23 -48.34,-34.25 -8.42,-5.08 -17.05,-9.66 -25.88,-14.11 -4.43,-2.2 -8.93,-4.33 -13.53,-6.39 l -7.12,-3.05 c -2.62,-1.05 -4.48,-1.9 -8.42,-3.17 l -27.05,116.92"
         style="fill:#4b63b7;fill-opacity:1;fill-rule:nonzero;stroke:none"
         id="path50" />
      <path
         d="m 2735.21,2673.64 c -0.2,-0.32 1.94,-0.52 3.2,-0.74 l 4.62,-0.52 c 3.2,-0.31 6.49,-0.51 9.82,-0.69 6.66,-0.26 13.42,-0.29 20.16,-0.03 13.49,0.5 26.79,2.22 39.49,5.13 25.41,5.9 48.14,16.75 64.43,35.74 8.08,9.5 14.86,21.03 19.11,34.39 4.07,13.35 6.94,28.04 7.2,43.38 1.35,30.74 -4.46,63.05 -12.88,94.63 17.51,-27.63 33.44,-57.17 42.65,-90.86 4.94,-16.76 7.35,-34.72 7.59,-53.47 0.04,-18.78 -3.7,-38.48 -11.25,-57.28 -7.56,-18.8 -19.23,-36.35 -33.23,-51.2 -13.99,-14.91 -30.11,-27.27 -46.97,-37.53 -16.88,-10.24 -34.54,-18.58 -52.63,-25.25 -9.04,-3.37 -18.21,-6.33 -27.56,-8.99 -4.7,-1.28 -9.44,-2.52 -14.3,-3.64 l -7.47,-1.6 c -2.79,-0.51 -4.69,-0.98 -8.94,-1.43 l -3.04,119.96"
         style="fill:#4b63b7;fill-opacity:1;fill-rule:nonzero;stroke:none"
         id="path52" />
      <path
         d="m 2896.86,2705.8 c -1.14,-0.06 0.69,-0.76 1.35,-1.18 1.06,-0.47 2.06,-0.97 3.25,-1.42 2.27,-0.94 4.73,-1.83 7.2,-2.61 4.98,-1.63 10.15,-2.97 15.29,-3.95 10.33,-2.08 20.56,-2.81 30.26,-2.06 19.33,1.4 37.4,8.95 52.17,26.91 14.73,17.65 24.99,43.44 30.41,70.82 5.64,27.51 7.56,56.77 7.55,86.2 9.82,-27.73 18.12,-56.44 22.44,-86.99 1.25,-7.61 1.56,-15.42 2.35,-23.28 0.09,-7.91 0.61,-15.92 0,-24.09 -0.55,-16.31 -3.71,-33.24 -9.47,-50.25 -5.85,-16.97 -15.29,-34.03 -28.52,-48.74 -13.14,-14.77 -29.73,-26.85 -47.39,-35.59 -17.71,-8.82 -36.38,-14.51 -55.02,-17.82 -9.35,-1.72 -18.72,-2.81 -28.21,-3.37 -4.77,-0.29 -9.52,-0.44 -14.45,-0.41 l -7.52,0.17 c -2.91,0.21 -4.64,0.15 -9.32,0.88 l 27.63,116.78"
         style="fill:#4b63b7;fill-opacity:1;fill-rule:nonzero;stroke:none"
         id="path54" />
      <path
         d="m 3010.29,2715.77 c -1.04,-0.08 0.75,-0.78 1.42,-1.21 1.06,-0.47 2.04,-1 3.22,-1.46 2.26,-0.96 4.7,-1.88 7.17,-2.71 4.95,-1.74 10.11,-3.14 15.29,-4.32 10.36,-2.29 20.96,-3.69 31.15,-3.5 20.42,0.25 39.89,5.84 57.1,19.96 17.19,14.06 30.62,36.65 39.8,61.95 9.05,25.47 14.04,53.53 16.84,81.98 7.12,-27.69 12.43,-56.39 12.79,-86.68 -0.02,-30.06 -4.56,-62.69 -21.76,-93.69 -8.59,-15.32 -20.3,-29.79 -34.46,-41.83 -14.12,-12.09 -30.46,-21.68 -47.46,-28.74 -17.05,-7.15 -34.69,-11.61 -52.48,-14.44 -8.9,-1.37 -17.85,-2.33 -26.93,-2.74 -4.55,-0.23 -9.11,-0.33 -13.83,-0.27 l -7.2,0.21 c -2.8,0.21 -4.48,0.15 -8.95,0.87 l 28.29,116.62"
         style="fill:#4b63b7;fill-opacity:1;fill-rule:nonzero;stroke:none"
         id="path56" />
      <path
         d="m 3117.55,2712.3 c 8.08,-4.14 16.43,-7.37 25.02,-9.98 8.42,-2.12 17.21,-3.92 25.86,-3.89 17.53,-0.75 35.65,4.65 53.18,16.28 4.1,3.21 8.87,5.91 12.83,9.74 l 12.25,11.67 c 7.33,8.83 15.28,17.81 21.58,28.26 7.2,9.95 12.5,21.15 18.57,32.25 5.68,11.26 10.26,23.08 15.52,34.91 -0.34,-12.73 -0.06,-25.78 -1.04,-38.81 -1.39,-12.95 -2.09,-26.3 -5.17,-39.42 -2.08,-13.38 -6.37,-26.46 -10.65,-39.98 -2.7,-6.55 -5.67,-13.13 -8.64,-19.82 -2.95,-6.69 -7.3,-12.87 -11.1,-19.43 -16.35,-25.43 -41.9,-49.09 -73.35,-62.4 -15.55,-7.13 -32.05,-11.38 -48.75,-14.35 -16.6,-2.48 -33.42,-3.4 -50.06,-2.61 l 23.95,117.58"
         style="fill:#4b63b7;fill-opacity:1;fill-rule:nonzero;stroke:none"
         id="path58" />
      <path
         d="m 3213.42,2693.16 c -1.28,0.27 0.2,-0.75 0.61,-1.24 0.77,-0.62 1.5,-1.27 2.41,-1.92 1.7,-1.29 3.62,-2.6 5.58,-3.82 3.93,-2.51 8.13,-4.84 12.4,-6.88 8.59,-4.17 17.56,-7.4 26.58,-9.29 18.02,-3.88 36.66,-2.83 55.36,6.08 18.69,8.8 36.07,25.76 50.53,46.09 14.4,20.5 25.86,44.33 35.46,69.1 0.2,-26.56 -1.5,-53.66 -7.97,-81.11 -6.72,-27.19 -17.95,-55.63 -39.73,-80.27 -21.42,-24.72 -54.04,-42.99 -88.18,-49.72 -17.07,-3.6 -34.33,-4.75 -51.4,-4.08 -8.57,0.31 -17.07,1.1 -25.65,2.41 -4.29,0.62 -8.57,1.39 -12.99,2.35 l -6.74,1.58 c -2.61,0.75 -4.14,0.99 -8.38,2.63 l 52.11,108.09"
         style="fill:#4b63b7;fill-opacity:1;fill-rule:nonzero;stroke:none"
         id="path60" />
      <path
         d="m 3339.75,2664.95 -1.07,0.02 0.43,-0.67 1.21,-1.47 c 1.07,-1.02 2.1,-2.16 3.46,-3.1 2.53,-2.19 5.33,-3.79 8.24,-5.75 5.71,-2.94 12.05,-6.21 18.33,-7.24 12.68,-3.07 27.73,-1.13 43.21,8.19 8.09,3.99 14.94,11.03 22.6,17.67 3.71,3.47 6.69,7.78 10.17,11.75 3.22,4.16 7.15,8 9.95,12.65 5.63,9.21 12.18,18.38 17.4,28.34 l 15.15,30.69 -0.71,-34.76 c -0.53,-11.72 -2.6,-23.38 -4.01,-35.47 -0.67,-6.04 -2.71,-11.86 -4.09,-17.92 -1.69,-5.98 -2.83,-12.21 -5.14,-18.2 -5,-11.88 -9.45,-24.44 -17.76,-36.01 l -5.82,-8.93 c -2.16,-2.89 -4.79,-5.52 -7.26,-8.31 -5.1,-5.43 -10.02,-11.29 -16.55,-15.73 -6.29,-4.68 -12.58,-9.8 -19.97,-13.14 l -11.03,-5.48 c -3.74,-1.78 -7.64,-2.78 -11.57,-4.15 -15.78,-5.59 -32.2,-7.26 -48.69,-7.75 -8.1,0.21 -16.39,0.47 -24.56,1.73 -4.09,0.44 -8.29,1.32 -12.51,2.2 -2.04,0.39 -4.27,0.94 -6.61,1.63 l -3.45,0.99 c -1.04,0.27 -3.29,1.2 -4.86,1.83 l 55.51,106.39"
         style="fill:#4b63b7;fill-opacity:1;fill-rule:nonzero;stroke:none"
         id="path62" />
      <path
         d="m 3405.43,2639.37 -1.21,0.55 0.07,-0.65 0.51,-1.59 c 0.54,-1.2 1.15,-2.47 2.05,-3.7 1.53,-2.66 3.63,-4.94 5.67,-7.52 2.23,-2.05 4.45,-4.85 7.03,-6.58 l 3.9,-3.16 4.22,-2.47 c 11.43,-6.83 26.77,-9.82 44.37,-7.22 4.3,0.93 9.04,0.86 13.43,2.66 l 13.73,4.57 c 4.79,1.35 9.01,4.21 13.67,6.31 4.51,2.37 9.36,4.45 13.83,7.19 8.62,5.88 17.9,11.5 26.57,18.1 l 25.48,21.1 -13.91,-30.65 c -5.09,-10.12 -11.27,-19.79 -17.16,-29.99 -3.16,-4.95 -6.97,-9.49 -10.53,-14.33 -3.81,-4.65 -7.02,-9.91 -11.53,-14.17 l -13.43,-13.32 c -4.37,-4.7 -10.19,-8.06 -15.46,-12.16 -21.58,-15.5 -50.56,-26.87 -82.11,-27.14 l -11.85,0.08 -11.72,1.36 c -8,0.78 -15.51,2.94 -23.35,4.87 -7.55,2.42 -15.23,4.92 -22.62,8.45 -3.73,1.59 -7.48,3.54 -11.25,5.65 -1.85,0.99 -3.76,2.08 -5.84,3.47 l -3.03,1.99 c -0.79,0.45 -2.87,2.19 -4.21,3.28 l 84.68,85.02"
         style="fill:#4b63b7;fill-opacity:1;fill-rule:nonzero;stroke:none"
         id="path64" />
      <path
         d="m 2255.92,2221.9 c 0,0 44.11,233.85 345.02,410.43 300.9,176.58 681.25,26.33 883.2,-90.17 0,0 -15.01,-129.42 -127.16,-255.07 -212.41,-237.95 -520.69,-347.79 -1101.06,-65.19"
         style="fill:#ffffff;fill-opacity:1;fill-rule:nonzero;stroke:none"
         id="path66" />
      <path
         d="m 3143.36,2400.3 c 0,-148.64 -120.5,-269.14 -269.13,-269.14 -148.64,0 -269.14,120.5 -269.14,269.14 0,148.64 120.5,269.14 269.14,269.14 148.63,0 269.13,-120.5 269.13,-269.14"
         style="fill:#7890d1;fill-opacity:1;fill-rule:nonzero;stroke:none"
         id="path68" />
      <path
         d="m 3029.16,2400.3 c 0,-85.57 -69.37,-154.93 -154.93,-154.93 -85.58,0 -154.94,69.36 -154.94,154.93 0,85.57 69.36,154.93 154.94,154.93 85.56,0 154.93,-69.36 154.93,-154.93"
         style="fill:#4b63b7;fill-opacity:1;fill-rule:nonzero;stroke:none"
         id="path70" />
      <path
         d="m 2255.92,2221.9 c 6.01,30.29 15.67,59.9 27.12,88.78 11.47,28.89 24.82,57.21 40.26,84.47 30.41,54.85 68.66,105.92 113.46,151.47 44.77,45.52 96.63,85.04 153.59,116.02 l 21.42,11.56 c 7.22,3.67 14.78,6.65 22.18,10.01 14.89,6.47 29.61,13.43 45.11,18.33 l 23.07,7.87 11.55,3.88 11.78,3.05 c 15.74,3.88 31.42,8.2 47.26,11.63 63.73,12.66 128.6,15.23 192.4,11.54 l 47.62,-4.68 c 7.96,-0.6 15.8,-1.88 23.59,-3.41 l 23.41,-4.29 c 15.51,-3.16 31.31,-5.04 46.45,-9.53 l 45.63,-12.26 c 15.32,-3.6 29.94,-9.41 44.74,-14.5 l 44.12,-15.79 c 28.73,-12.16 57.18,-24.79 85.16,-38.03 27.35,-14.72 54.75,-29.04 81.28,-44.72 26.14,-16.51 51.84,-33.56 77.02,-51.14 -116.95,38.33 -231.82,75.6 -348.53,95.29 -29.18,4.48 -58.08,10 -87.24,12.14 l -21.79,2.2 c -7.25,0.75 -14.47,1.7 -21.75,1.73 l -43.44,1.7 c -7.24,0.5 -14.45,0.3 -21.64,0.05 l -21.6,-0.54 -21.56,-0.5 c -7.18,-0.25 -14.27,-1.35 -21.39,-1.97 -14.21,-1.6 -28.59,-2.05 -42.65,-4.37 l -42.14,-7.13 c -55.73,-11.37 -109.83,-29.34 -161.17,-53.88 -51.39,-24.49 -99.84,-55.76 -144.89,-92.31 -45.11,-36.52 -86.83,-78.34 -124.72,-124.25 -38.17,-45.77 -72.93,-95.17 -103.71,-148.42"
         style="fill:#4b63b7;fill-opacity:1;fill-rule:nonzero;stroke:none"
         id="path72" />
      <path
         d="m 3436.11,2892.36 c -56.88,17.65 -114.98,30.39 -173.38,40.26 -58.41,9.8 -117.3,16.09 -176.24,19.11 -117.84,5.64 -236.26,-2.96 -350.67,-29.52 -28.5,-7.01 -56.89,-14.42 -84.83,-23.38 -28.28,-8.67 -54.96,-18.7 -80.85,-31.7 -51.93,-25.4 -98.91,-60.79 -141.39,-100.89 -21.29,-20.05 -41.4,-41.48 -60.35,-63.96 -19.12,-22.34 -37.16,-45.71 -54.1,-69.9 -34.05,-48.29 -64.65,-99.29 -90.74,-152.84 19.58,56.39 46.84,110.01 77.85,161.32 15.77,25.53 32.68,50.4 50.96,74.35 18.44,23.82 38.17,46.72 59.32,68.38 42.43,43.03 90.74,81.43 145.41,109.32 27.19,13.97 56.3,25.17 84.84,34.12 28.66,9.48 57.82,17.32 87.2,24.13 117.68,26.71 239.37,33.74 358.89,23.19 59.81,-5.02 119.11,-14.72 177.46,-27.93 58.18,-13.75 115.8,-30.53 170.62,-54.06"
         style="fill:#7890d1;fill-opacity:1;fill-rule:nonzero;stroke:none"
         id="path74" />
      <path
         d="m 2056.59,2162.24 h -10 v 25 h 10 v -25"
         style="fill:#7890d1;fill-opacity:1;fill-rule:nonzero;stroke:none"
         id="path76" />
      <path
         d="m 2056.59,3457.48 h -10 v 50.81 h 10 z m 0,-101.62 h -10 v 50.82 h 10 z m 0,-101.62 h -10 v 50.81 h 10 z m 0,-101.61 h -10 v 50.8 h 10 z m 0,-101.63 h -10 v 50.82 h 10 z m 0,-101.62 h -10 v 50.82 h 10 z m 0,-101.61 h -10 v 50.81 h 10 z m 0,-101.62 h -10 v 50.81 h 10 z m 0,-101.62 h -10 v 50.81 h 10 z m 0,-101.62 h -10 v 50.81 h 10 z m 0,-101.62 h -10 v 50.81 h 10 z m 0,-101.62 h -10 v 50.81 h 10 z m 0,-101.62 h -10 v 50.81 h 10 v -50.81"
         style="fill:#7890d1;fill-opacity:1;fill-rule:nonzero;stroke:none"
         id="path78" />
      <path
         d="m 2056.59,3559.1 h -10 v 30 h 30 v -10 h -20 v -20"
         style="fill:#7890d1;fill-opacity:1;fill-rule:nonzero;stroke:none"
         id="path80" />
      <path
         d="m 2177.66,3579.1 h -50.54 v 10 h 50.54 z m 101.07,0 h -50.54 v 10 h 50.54 z m 101.07,0 h -50.54 v 10 h 50.54 z m 101.07,0 h -50.54 v 10 h 50.54 z m 101.06,0 h -50.53 v 10 h 50.53 z m 101.08,0 h -50.54 v 10 h 50.54 z m 101.06,0 h -50.53 v 10 h 50.53 z m 101.08,0 h -50.54 v 10 h 50.54 z m 101.06,0 h -50.54 v 10 h 50.54 z m 101.08,0 h -50.54 v 10 h 50.54 z m 101.06,0 h -50.54 v 10 h 50.54 z m 101.07,0 h -50.53 v 10 h 50.53 z m 101.07,0 h -50.54 v 10 h 50.54 z m 101.07,0 h -50.53 v 10 h 50.53 z m 101.07,0 h -50.54 v 10 h 50.54 z m 101.07,0 h -50.54 v 10 h 50.54 z m 101.07,0 h -50.54 v 10 h 50.54 v -10"
         style="fill:#7890d1;fill-opacity:1;fill-rule:nonzero;stroke:none"
         id="path82" />
      <path
         d="m 3875.3,3559.1 h -10 v 20 h -20 v 10 h 30 v -30"
         style="fill:#7890d1;fill-opacity:1;fill-rule:nonzero;stroke:none"
         id="path84" />
      <path
         d="m 3875.3,3459.13 h -10 v 49.99 h 10 z m 0,-99.97 h -10 v 49.98 h 10 z m 0,-99.98 h -10 v 49.99 h 10 z m 0,-99.97 h -10 v 49.99 h 10 z m 0,-99.98 h -10 v 49.99 h 10 z m 0,-99.97 h -10 v 49.99 h 10 z m 0,-99.97 h -10 v 49.98 h 10 v -49.98"
         style="fill:#7890d1;fill-opacity:1;fill-rule:nonzero;stroke:none"
         id="path86" />
      <path
         d="m 3875.3,2779.3 h -30 v 10 h 20 v 20 h 10 v -30"
         style="fill:#7890d1;fill-opacity:1;fill-rule:nonzero;stroke:none"
         id="path88" />
      <path
         d="m 2177.66,2779.3 h -50.54 v 10 h 50.54 z m 101.07,0 h -50.54 v 10 h 50.54 z m 101.07,0 h -50.54 v 10 h 50.54 z m 101.07,0 h -50.54 v 10 h 50.54 z m 101.06,0 h -50.53 v 10 h 50.53 z m 101.08,0 h -50.54 v 10 h 50.54 z m 101.06,0 h -50.53 v 10 h 50.53 z m 101.08,0 h -50.54 v 10 h 50.54 z m 101.06,0 h -50.54 v 10 h 50.54 z m 101.08,0 h -50.54 v 10 h 50.54 z m 101.06,0 h -50.54 v 10 h 50.54 z m 101.07,0 h -50.53 v 10 h 50.53 z m 101.07,0 h -50.54 v 10 h 50.54 z m 101.07,0 h -50.53 v 10 h 50.53 z m 101.07,0 h -50.54 v 10 h 50.54 z m 101.07,0 h -50.54 v 10 h 50.54 z m 101.07,0 h -50.54 v 10 h 50.54 v -10"
         style="fill:#7890d1;fill-opacity:1;fill-rule:nonzero;stroke:none"
         id="path90" />
      <path
         d="m 2076.59,2779.3 h -25 v 10 h 25 v -10"
         style="fill:#7890d1;fill-opacity:1;fill-rule:nonzero;stroke:none"
         id="path92" />
      <path
         d="m 2479.19,3534.1 h -10 v 50 h 10 z m 0,-100 h -10 v 50 h 10 z m 0,-100 h -10 v 50 h 10 z m 0,-100 h -10 v 50 h 10 z m 0,-100 h -10 v 50 h 10 z m 0,-100 h -10 v 50 h 10 z m 0,-100 h -10 v 50 h 10 z m 0,-100 h -10 v 50 h 10 v -50"
         style="fill:#7890d1;fill-opacity:1;fill-rule:nonzero;stroke:none"
         id="path94" />
      <path
         d="m 2977.56,3534.1 h -10 v 50 h 10 z m 0,-100 h -10 v 50 h 10 z m 0,-100 h -10 v 50 h 10 z m 0,-100 h -10 v 50 h 10 z m 0,-100 h -10 v 50 h 10 z m 0,-100 h -10 v 50 h 10 z m 0,-100 h -10 v 50 h 10 z m 0,-100 h -10 v 50 h 10 v -50"
         style="fill:#7890d1;fill-opacity:1;fill-rule:nonzero;stroke:none"
         id="path96" />
      <path
         d="m 3475.92,3534.1 h -10 v 50 h 10 z m 0,-100 h -10 v 50 h 10 z m 0,-100 h -10 v 50 h 10 z m 0,-100 h -10 v 50 h 10 z m 0,-100 h -10 v 50 h 10 z m 0,-100 h -10 v 50 h 10 z m 0,-100 h -10 v 50 h 10 z m 0,-100 h -10 v 50 h 10 v -50"
         style="fill:#7890d1;fill-opacity:1;fill-rule:nonzero;stroke:none"
         id="path98" />
      <path
         d="m 3643.37,3534.1 h -10 v 50 h 10 z m 0,-100 h -10 v 50 h 10 z m 0,-100 h -10 v 50 h 10 z m 0,-100 h -10 v 50 h 10 z m 0,-100 h -10 v 50 h 10 z m 0,-100 h -10 v 50 h 10 z m 0,-100 h -10 v 50 h 10 z m 0,-100 h -10 v 50 h 10 v -50"
         style="fill:#7890d1;fill-opacity:1;fill-rule:nonzero;stroke:none"
         id="path100" />
      <path
         d="m 2126.72,3179.2 h -50 v 10 h 50 z m 100,0 h -50 v 10 h 50 z m 100,0 h -50 v 10 h 50 z m 100,0 h -50 v 10 h 50 z m 100,0 h -50 v 10 h 50 z m 100,0 h -50 v 10 h 50 z m 100,0 h -50 v 10 h 50 z m 100,0 h -50 v 10 h 50 z m 100,0 h -50 v 10 h 50 z m 100,0 h -50 v 10 h 50 z m 100,0 h -50 v 10 h 50 z m 100,0 h -50 v 10 h 50 z m 100,0 h -50 v 10 h 50 z m 100,0 h -50 v 10 h 50 z m 100,0 h -50 v 10 h 50 z m 100,0 h -50 v 10 h 50 z m 100,0 h -50 v 10 h 50 z m 100,0 h -50 v 10 h 50 z m -2.32,-28.18 -5.11,8.59 42.94,25.6 5.11,-8.59 z m -85.89,-51.22 -5.12,8.6 42.95,25.6 5.12,-8.59 z m -85.89,-51.2 -5.12,8.59 42.94,25.6 5.12,-8.59 z m -85.9,-51.21 -5.12,8.59 42.95,25.61 5.12,-8.6 z m -85.9,-51.21 -5.12,8.59 42.95,25.61 5.12,-8.59 z m -85.89,-51.21 -5.12,8.6 42.95,25.6 5.12,-8.59 z m -85.9,-51.2 -5.11,8.59 42.95,25.6 5.11,-8.59 z m -85.89,-51.21 -5.11,8.59 42.95,25.61 5.11,-8.6 z m -85.89,-51.21 -5.12,8.6 42.95,25.6 5.12,-8.59 z m -85.89,-51.2 -5.12,8.59 42.94,25.61 5.12,-8.59 z m -85.9,-51.21 -5.12,8.59 42.95,25.6 5.12,-8.59 z m -85.89,-51.21 -5.12,8.59 42.94,25.61 5.12,-8.6 z m -85.9,-51.21 -5.12,8.6 42.95,25.6 5.12,-8.59 z m -85.9,-51.2 -5.11,8.59 42.95,25.6 5.11,-8.59 z m -85.89,-51.21 -5.11,8.59 42.95,25.6 5.11,-8.59 z m -85.89,-51.21 -5.12,8.59 42.95,25.61 5.12,-8.59 z m -85.89,-51.21 -5.12,8.6 42.95,25.6 5.12,-8.59 z m -85.9,-51.2 -5.12,8.59 42.95,25.6 5.12,-8.59 z m -85.89,-51.21 -5.12,8.6 42.94,25.6 5.12,-8.6 z m -85.9,-51.21 -5.11,8.59 42.94,25.61 5.12,-8.59 z m -85.89,-51.21 -5.12,8.6 42.95,25.6 5.12,-8.59 -42.95,-25.61"
         style="fill:#7890d1;fill-opacity:1;fill-rule:nonzero;stroke:none"
         id="path102" />
      <path
         d="m 3925.96,2475.13 -7.07,7.07 21.21,21.21 7.07,-7.07 z m -42.43,-42.43 -7.07,7.07 21.22,21.22 7.07,-7.07 z m -42.43,-42.42 -7.07,7.07 21.21,21.21 7.07,-7.07 z m -42.43,-42.43 -7.07,7.07 21.22,21.21 7.07,-7.07 z m -42.42,-42.43 -7.07,7.07 21.21,21.22 7.07,-7.07 -21.21,-21.22"
         style="fill:#7890d1;fill-opacity:1;fill-rule:nonzero;stroke:none"
         id="path104" />
      <path
         d="m 3770.39,2466.89 -21.21,21.21 7.07,7.07 21.21,-21.21 z m 42.43,-42.43 -21.22,21.21 7.07,7.07 21.22,-21.21 z m 42.42,-42.42 -21.21,21.21 7.07,7.07 21.21,-21.21 z m 42.44,-42.43 -21.22,21.21 7.07,7.07 21.22,-21.21 z m 42.42,-42.43 -21.21,21.21 7.07,7.07 21.21,-21.21 -7.07,-7.07"
         style="fill:#7890d1;fill-opacity:1;fill-rule:nonzero;stroke:none"
         id="path106" />
      <path
         d="m 1909.06,3718.11 -7.07,7.07 21.21,21.21 7.07,-7.07 z m -42.42,-42.43 -7.07,7.07 21.21,21.21 7.07,-7.07 z m -42.43,-42.42 -7.07,7.07 21.21,21.21 7.07,-7.07 -21.21,-21.21"
         style="fill:#7890d1;fill-opacity:1;fill-rule:nonzero;stroke:none"
         id="path108" />
      <path
         d="m 1838.35,3717.91 -21.21,21.21 7.07,7.07 21.21,-21.21 z m 42.43,-42.43 -21.21,21.21 7.07,7.07 21.21,-21.21 z m 42.42,-42.43 -21.21,21.21 7.07,7.07 21.21,-21.21 -7.07,-7.07"
         style="fill:#7890d1;fill-opacity:1;fill-rule:nonzero;stroke:none"
         id="path110" />
      <path
         d="M 4316.89,801.02 H 3036.54 c -29.25,0 -52.96,23.718 -52.96,52.96 v 968.82 h 1104.89 c 29.24,0 52.96,23.71 52.96,52.96 v 101.22 h 175.46 c 29.25,0 52.96,-23.71 52.96,-52.96 V 853.98 c 0,-29.242 -23.71,-52.96 -52.96,-52.96"
         style="fill:#c1e1f6;fill-opacity:1;fill-rule:nonzero;stroke:none"
         id="path112" />
      <path
         d="M 4088.47,1822.8 H 2983.58 v 101.22 c 0,29.25 23.71,52.96 52.96,52.96 h 1104.89 v -101.22 c 0,-29.25 -23.72,-52.96 -52.96,-52.96"
         style="fill:#7eb2e3;fill-opacity:1;fill-rule:nonzero;stroke:none"
         id="path114" />
      <path
         d="M 4316.89,801.02 H 3093.16 c -29.24,0 -52.95,23.718 -52.95,52.96 v 1003.38 c 0,29.25 23.71,52.96 52.95,52.96 h 1223.73 c 29.25,0 52.96,-23.71 52.96,-52.96 V 853.98 c 0,-29.242 -23.71,-52.96 -52.96,-52.96"
         style="fill:#9eccef;fill-opacity:1;fill-rule:nonzero;stroke:none"
         id="path116" />
      <path
         d="m 4094.18,989.391 h -839.69 c -8.65,0 -15.65,7.019 -15.65,15.659 v 302.32 c 0,8.64 7,15.66 15.65,15.66 h 839.69 c 8.65,0 15.65,-7.02 15.65,-15.66 v -302.32 c 0,-8.64 -7,-15.659 -15.65,-15.659"
         style="fill:#ffffff;fill-opacity:1;fill-rule:nonzero;stroke:none"
         id="path118" />
      <path
         d="m 3389.71,1323.03 c -1.63,-10.17 -3.19,-20.1 -4.62,-29.55 -1.87,-12.38 -7.34,-23.76 -15.39,-32.05 -21.54,-22.14 -36.57,-53.96 -41.25,-87.28 -9.35,-66.51 23.52,-118.61 74.84,-118.61 51.32,0 98.85,52.1 108.19,118.61 4.85,34.43 -1.77,66.93 -18.14,89.2 -6.61,8.97 -9.24,21.22 -7.41,34.47 1.17,8.5 2.37,16.88 3.59,25.21 h -99.81"
         style="fill:#7890d1;fill-opacity:1;fill-rule:nonzero;stroke:none"
         id="path120" />
      <path
         d="m 3451.18,1297.73 c 45.34,385.97 298.32,471.39 298.32,471.39 -252.98,-85.42 -305.2,-313.86 -329.73,-476.02 -2.96,-19.56 -11.87,-38.83 -26.49,-53.87 -14.95,-15.38 -26.4,-38.81 -30.1,-65.07 -6.51,-46.33 13.64,-83.89 44.99,-83.89 31.37,0 62.07,37.56 68.59,83.89 3.79,27 -1.49,50.98 -12.77,66.29 -11.59,15.76 -15.28,36.28 -12.81,57.28"
         style="fill:#4b63b7;fill-opacity:1;fill-rule:nonzero;stroke:none"
         id="path122" />
      <path
         d="m 3630.82,1323.03 c -1.63,-10.17 -3.18,-20.1 -4.62,-29.55 -1.87,-12.38 -7.34,-23.76 -15.39,-32.05 -21.53,-22.14 -36.57,-53.96 -41.25,-87.28 -9.35,-66.51 23.53,-118.61 74.84,-118.61 51.32,0 98.85,52.1 108.2,118.61 4.83,34.43 -1.78,66.93 -18.15,89.2 -6.61,8.97 -9.24,21.22 -7.41,34.47 1.17,8.5 2.37,16.88 3.59,25.21 h -99.81"
         style="fill:#7890d1;fill-opacity:1;fill-rule:nonzero;stroke:none"
         id="path124" />
      <path
         d="m 3692.29,1297.73 c 45.35,385.97 298.33,471.39 298.33,471.39 -252.98,-85.42 -305.21,-313.86 -329.74,-476.02 -2.96,-19.56 -11.87,-38.83 -26.49,-53.87 -14.95,-15.38 -26.41,-38.81 -30.1,-65.07 -6.51,-46.33 13.64,-83.89 45,-83.89 31.36,0 62.07,37.56 68.57,83.89 3.8,27 -1.48,50.98 -12.75,66.29 -11.59,15.76 -15.29,36.28 -12.82,57.28"
         style="fill:#4b63b7;fill-opacity:1;fill-rule:nonzero;stroke:none"
         id="path126" />
      <path
         d="m 3871.93,1323.03 c -1.63,-10.17 -3.19,-20.1 -4.62,-29.55 -1.87,-12.38 -7.34,-23.76 -15.39,-32.05 -21.53,-22.14 -36.57,-53.96 -41.25,-87.28 -9.35,-66.51 23.53,-118.61 74.85,-118.61 51.32,0 98.85,52.1 108.19,118.61 4.83,34.43 -1.78,66.93 -18.15,89.2 -6.6,8.97 -9.24,21.22 -7.42,34.47 1.18,8.5 2.39,16.88 3.6,25.21 h -99.81"
         style="fill:#7890d1;fill-opacity:1;fill-rule:nonzero;stroke:none"
         id="path128" />
      <path
         d="m 3933.41,1297.73 c 45.33,385.97 298.32,471.39 298.32,471.39 -252.99,-85.42 -305.22,-313.86 -329.74,-476.02 -2.96,-19.56 -11.86,-38.83 -26.48,-53.87 -14.95,-15.38 -26.42,-38.81 -30.11,-65.07 -6.51,-46.33 13.63,-83.89 45,-83.89 31.36,0 62.06,37.56 68.57,83.89 3.8,27 -1.48,50.98 -12.75,66.29 -11.59,15.76 -15.28,36.28 -12.81,57.28"
         style="fill:#4b63b7;fill-opacity:1;fill-rule:nonzero;stroke:none"
         id="path130" />
      <path
         d="m 1317.46,115.672 c 0,-25.3322 -164.34,-45.8712 -367.065,-45.8712 -202.723,0 -367.059,20.539 -367.059,45.8712 0,25.34 164.336,45.867 367.059,45.867 202.725,0 367.065,-20.527 367.065,-45.867"
         style="fill:#e2e2e0;fill-opacity:1;fill-rule:nonzero;stroke:none"
         id="path132" />
      <path
         d="m 758.258,232.98 -67.871,-52.039 119.851,-38.769 16.055,85.066 -68.035,5.742"
         style="fill:#e46e52;fill-opacity:1;fill-rule:nonzero;stroke:none"
         id="path134" />
      <path
         d="m 1016.12,234.789 34.51,-109.43 85.31,54.723 -51.54,54.707 h -68.28"
         style="fill:#e46e52;fill-opacity:1;fill-rule:nonzero;stroke:none"
         id="path136" />
      <path
         d="m 764.254,2007.27 c 0,0 337.276,-31.22 483.246,10.41 0,0 52.65,-106.89 36.29,-165.42 0,0 -186.64,-276.07 -219.84,-333.31 0,0 -89.372,-30.94 -123.341,-17.94 0,0 -151.398,345.9 -200.808,361.8 0,0 0,74.64 24.453,144.46"
         style="fill:#1a2545;fill-opacity:1;fill-rule:nonzero;stroke:none"
         id="path138" />
      <path
         d="m 1174.6,2170.04 c -7.97,27.65 35.75,101.88 50.92,153.31 7.36,16.73 13.03,34.35 16.68,52.73 l 0.09,0.23 -0.05,0.01 c 3.19,16.15 4.94,32.83 4.94,49.93 v 9.41 c 0,141.5 -114.7,256.2 -256.203,256.2 -141.5,0 -256.207,-114.7 -256.207,-256.2 v -9.41 c 0,-10.55 0.832,-20.88 2.07,-31.09 l -0.125,0.01 0.223,-0.65 c 4.058,-32.81 14.156,-63.72 29.41,-91.47 16.132,-53.62 57.004,-114.43 53.793,-134.2 -6.153,-37.86 -55.887,-161.58 -55.887,-161.58 221.637,-121.63 483.246,10.41 483.246,10.41 0,0 -60.18,108.33 -72.9,152.36"
         style="fill:#4b63b7;fill-opacity:1;fill-rule:nonzero;stroke:none"
         id="path140" />
      <path
         d="M 875.992,3167.39 C 799,3137.52 746.664,3051.96 760.492,2999.83 c 6.516,-24.56 18.047,-29.41 17.891,-51.8 -0.274,-38.26 -74.203,-45.39 -115.403,-96.92 -41.078,-51.36 -51.371,-136.73 -25.984,-193.59 57.551,-128.9 290.887,-94.37 301.34,-92.7 123.624,19.79 265.674,104.37 267.564,193.59 0.95,44.89 -34.16,63.88 -31.17,128.14 2.99,64.36 39.77,79.05 38.96,119.97 -1.81,92.39 -193.16,216.95 -337.698,160.87"
         style="fill:#1a2545;fill-opacity:1;fill-rule:nonzero;stroke:none"
         id="path142" />
      <path
         d="m 1009.46,2758.65 8.16,263.82 H 901.484 V 2804.3 c 0,-31.86 -15,-61.74 -40.347,-81.05 -29.953,-22.83 -23.289,-9.44 -82.754,-31.39 0,0 89.258,-104.52 344.027,0 0,0 -36.88,-8.24 -104.79,44.95 -6.32,4.95 -8.16,13.81 -8.16,21.84"
         style="fill:#e46e52;fill-opacity:1;fill-rule:nonzero;stroke:none"
         id="path144" />
      <path
         d="m 722.195,1818.49 c 0,0 -133.226,-332.75 57.512,-862.529 C 757.59,906.141 634.594,601.309 758.258,232.98 l 68.035,-5.742 c 0,0 58.492,388.992 117.715,681.641 0,0 5.289,638.171 59.852,788.291 0,0 -116.192,100.58 -281.665,121.32"
         style="fill:#1a2545;fill-opacity:1;fill-rule:nonzero;stroke:none"
         id="path146" />
      <path
         d="m 762.367,231.262 c -94.297,484.886 25.555,693.5 41.219,718.078 -119.957,267.54 -101.844,681.9 -101.648,686.06 l 9.992,-0.47 c -0.196,-4.16 -18.297,-418.74 101.898,-683.989 l 1.192,-2.64 -1.696,-2.352 c -1.414,-1.969 -140.39,-202.41 -41.14,-712.777 l -9.817,-1.91"
         style="fill:#575a5c;fill-opacity:1;fill-rule:nonzero;stroke:none"
         id="path148" />
      <path
         d="m 826.293,227.238 c 0,0 9.484,-100.668 1.52,-107.828 -7.969,-7.148 -51.45,-42.6483 -57.239,-67.6209 C 764.789,26.8203 714.324,-4.16797 661.82,6.12891 609.32,16.4297 577.844,47.8398 599.941,87.0703 c 19.485,34.5777 39.704,48.8707 67.204,87.0197 l 30.968,34.59 63.16,-5.328 c 0,0 0.543,-37.25 21.301,-31.161 20.754,6.071 43.719,55.047 43.719,55.047"
         style="fill:#1a2545;fill-opacity:1;fill-rule:nonzero;stroke:none"
         id="path150" />
      <path
         d="m 1238.86,1901.15 c -166.63,-6.75 -261.891,-193.2 -261.891,-193.2 41.751,-154.19 -15.59,-786.97 -15.59,-786.97 34.414,-296.589 54.741,-686.191 54.741,-686.191 h 68.28 c 140.77,325.602 72.21,615.711 45.62,702.941 221.24,353.16 108.84,963.42 108.84,963.42"
         style="fill:#1a2545;fill-opacity:1;fill-rule:nonzero;stroke:none"
         id="path152" />
      <path
         d="m 1064.25,232.859 -9.22,3.871 c 151.53,360.692 40.66,713.399 39.53,716.911 l -0.62,1.91 0.86,1.789 c 215.88,451.53 115.22,755.29 114.18,758.3 l 9.45,3.28 c 1.06,-3.05 102.92,-309.57 -113.77,-764.131 8.73,-28.84 106.76,-371.641 -40.41,-721.93"
         style="fill:#575a5c;fill-opacity:1;fill-rule:nonzero;stroke:none"
         id="path154" />
      <path
         d="m 1016.12,234.789 c 0,0 -17.913,-99.508 -10.57,-107.32 7.33,-7.797 47.68,-46.8284 51.34,-72.1877 3.67,-25.3711 51.35,-60.49224 104.54,-54.640675 53.18,5.851565 87.18,34.507775 68.46,75.449175 -16.51,36.1012 -35.45,52.0312 -59.65,92.3592 l -27.95,37.082 h -63.39 c 0,0 -3.67,-37.082 -23.84,-29.269 -20.17,7.797 -38.94,58.527 -38.94,58.527"
         style="fill:#1a2545;fill-opacity:1;fill-rule:nonzero;stroke:none"
         id="path156" />
      <path
         d="m 1017.62,2791.66 c 0,0 -73.768,33.65 -86.874,45.66 0,0 49.465,-68.43 86.874,-78.67 v 33.01"
         style="fill:#1a2545;fill-opacity:1;fill-rule:nonzero;stroke:none"
         id="path158" />
      <path
         d="M 1172.99,2426.25 H 769.727"
         style="fill:#4b63b7;fill-opacity:1;fill-rule:nonzero;stroke:none"
         id="path160" />
      <path
         d="m 1286.7,2623.97 c -42.95,32.03 -208.77,77.23 -208.77,77.23 -140.309,-56.12 -269.391,0 -269.391,0 0,0 -69.473,-15.74 -132.641,-65.58 L 971.359,2367.7 1286.7,2623.97"
         style="fill:#4b63b7;fill-opacity:1;fill-rule:nonzero;stroke:none"
         id="path162" />
      <path
         d="m 1838.62,2344.89 -20.26,68.95 -192.94,-48.39 c -39.99,-10.44 -80.69,-18.38 -120.5,-29.05 -43.63,59.61 -89,117.95 -136.03,174.93 l 0.12,0.1 c 0,0 -57.53,147.53 -166.38,170.07 -108.85,22.55 -124.7,19.7 -124.7,19.7 L 976.969,2383 1008.4,1581.44 c 0,0 224.49,-26.21 351.5,43.69 0,0 -84.38,398.44 -161.43,562.18 l 57.51,232.03 0.08,0.07 c 52.95,-63.88 115.7,-120.27 169.46,-183.43 l 41.21,-48.43 0.07,-0.24 0.11,0.03 0.02,-0.03 0.09,0.07 c 76.06,22.36 150.5,49.79 222.74,82.1 l 148.86,75.41"
         style="fill:#ffffff;fill-opacity:1;fill-rule:nonzero;stroke:none"
         id="path164" />
      <path
         d="m 742.148,1993.5 -40.949,77.75 c -24.043,39.69 -50.051,78.14 -77.738,115.33 17.012,35.01 30.82,70.28 43.562,105.81 l 0.043,-0.04 61.25,107.35 62.094,-212.39 z m -75.324,633.16 c -16.371,-19 -28.66,-50.95 -37.836,-86.57 l -19.05,-38.2 c -43.008,-88.1 -82.594,-177.84 -118.665,-269 l -23.507,-59.43 1.007,-0.38 -1.105,-0.61 c 43.152,-66.59 90.734,-130.19 142.355,-190.25 l 100.266,-116.68 -67.441,-270.86 c 149.414,-39.31 334.121,-19.79 334.121,-19.79 V 2383 l -168.43,318.2 c -87.117,-11.54 -130.047,-59.31 -141.715,-74.54"
         style="fill:#ffffff;fill-opacity:1;fill-rule:nonzero;stroke:none"
         id="path166" />
      <path
         d="m 1127.7,2996.66 c 6.56,-84.33 -42.19,-155.32 -119.03,-161.91 -76.85,-6.59 -144.471,56.44 -151.033,140.77 -6.567,84.34 50.406,158.05 127.25,164.64 76.853,6.59 136.243,-59.16 142.813,-143.5"
         style="fill:#e46e52;fill-opacity:1;fill-rule:nonzero;stroke:none"
         id="path168" />
      <path
         d="m 1127.7,2996.66 c 0,0 22.45,-121.41 -60.55,-208.91 -3.98,-4.2 -9.5,-6.11 -15.01,-5.42 -33.38,4.19 -161.902,20.43 -186.691,166.4 l 262.251,47.93"
         style="fill:#e46e52;fill-opacity:1;fill-rule:nonzero;stroke:none"
         id="path170" />
      <path
         d="m 1053.28,3095.82 c 0,0 -127.264,88.99 -135.792,-128.83 0,0 -37.504,16.35 -45.609,-11.76 -10.785,-37.41 21.844,-59.64 53.016,-54.19 l -29.891,-66.76 -81.191,153.17 90.753,169.03 h 116.894 l 93.72,-53.16 c 0,0 -55.4,22.48 -61.9,-7.5"
         style="fill:#1a2545;fill-opacity:1;fill-rule:nonzero;stroke:none"
         id="path172" />
      <path
         d="m 653.402,2635.4 c -0.957,1.24 -94.441,125.94 -10.007,238 24.554,32.59 62.293,50.32 92.621,64.57 23.695,11.14 44.16,20.76 46.644,32.59 1.231,5.87 -1.84,12.93 -9.394,21.58 l 7.531,6.57 c 9.762,-11.17 13.574,-21.05 11.648,-30.2 -3.504,-16.71 -24.984,-26.81 -52.175,-39.58 -29.329,-13.79 -65.829,-30.94 -88.887,-61.55 -79.918,-106.06 9.051,-224.72 9.961,-225.91 l -7.942,-6.07"
         style="fill:#1a2545;fill-opacity:1;fill-rule:nonzero;stroke:none"
         id="path174" />
      <path
         d="m 1197.32,2965.93 -8.04,5.95 c 25.47,34.41 32.65,65.19 21.36,91.48 -30.5,71.07 -184.13,90.8 -185.68,90.99 l 1.22,9.92 c 6.55,-0.81 160.88,-20.63 193.65,-96.96 12.8,-29.79 5.22,-63.91 -22.51,-101.38"
         style="fill:#1a2545;fill-opacity:1;fill-rule:nonzero;stroke:none"
         id="path176" />
      <path
         d="m 966.34,2006.92 -114.785,350.47 41.199,76.38 -139.863,111.31 -23.043,109.4 9.785,2.06 22.301,-105.87 143.593,-114.28 -43.132,-79.96 113.445,-346.4 -9.5,-3.11"
         style="fill:#d3edfb;fill-opacity:1;fill-rule:nonzero;stroke:none"
         id="path178" />
      <path
         d="m 1004.15,2022.19 -9.615,2.77 98.445,342.06 -46.28,78.18 138.78,119.74 8.76,97.57 9.96,-0.9 -9.12,-101.59 -135.5,-116.92 44.2,-74.71 -99.63,-346.2"
         style="fill:#d3edfb;fill-opacity:1;fill-rule:nonzero;stroke:none"
         id="path180" />
      <path
         d="m 728.074,1817.19 c 4.414,-10.65 21.281,-46.78 50.129,-55.31 16.586,-4.91 34.817,0.15 54.195,15 54.973,42.15 9.547,117.46 -3.511,136.73 z m 62.785,-67.14 c -5.261,0 -10.437,0.75 -15.527,2.25 -38.66,11.47 -57.086,62.36 -57.848,64.52 l -1.078,3.04 113.793,108.84 3.395,-4.43 c 0.765,-1.01 75.89,-100.89 4.886,-155.32 -16.41,-12.58 -32.367,-18.9 -47.621,-18.9"
         style="fill:#d3edfb;fill-opacity:1;fill-rule:nonzero;stroke:none"
         id="path182" />
      <path
         d="m 796.43,1889.84 -68.676,120.26 8.684,4.96 68.675,-120.26 -8.683,-4.96"
         style="fill:#d3edfb;fill-opacity:1;fill-rule:nonzero;stroke:none"
         id="path184" />
      <path
         d="m 996.926,2960.64 c 0,-4.71 -3.828,-8.54 -8.551,-8.54 -4.719,0 -8.547,3.83 -8.547,8.54 0,4.73 3.828,8.55 8.547,8.55 4.723,0 8.551,-3.82 8.551,-8.55"
         style="fill:#1a2545;fill-opacity:1;fill-rule:nonzero;stroke:none"
         id="path186" />
      <path
         d="m 970.102,2967.35 c 8.195,3.71 15.574,5.03 21.636,7.34 l 3.305,1.01 c 1.434,0.3 2.969,0.58 4.43,0.39 2.937,-0.32 5.647,-1.26 7.627,-2.86 4.05,-3.01 6.38,-7.13 6.93,-11.73 -4.22,1.73 -7.8,3.23 -10.85,3.84 -1.54,0.22 -2.77,0.38 -3.805,0.06 l -1.453,-0.35 -2.317,-0.96 c -4.531,-1.53 -8.996,-1.91 -13.3,-1.32 -4.282,0.54 -8.461,1.85 -12.203,4.58"
         style="fill:#1a2545;fill-opacity:1;fill-rule:nonzero;stroke:none"
         id="path188" />
      <path
         d="m 1103.49,2966.59 c 0.23,-4.33 -3.09,-8.01 -7.41,-8.24 -4.32,-0.23 -8.01,3.09 -8.24,7.42 -0.23,4.32 3.09,8.01 7.41,8.23 4.33,0.23 8.02,-3.09 8.24,-7.41"
         style="fill:#1a2545;fill-opacity:1;fill-rule:nonzero;stroke:none"
         id="path190" />
      <path
         d="m 1079.06,2972.15 c 7.32,3.8 14.01,5.36 19.46,7.76 l 2.98,1.09 c 1.29,0.34 2.68,0.68 4.03,0.57 2.71,-0.15 5.24,-0.88 7.13,-2.25 3.85,-2.56 6.19,-6.22 6.91,-10.4 -3.95,1.37 -7.3,2.57 -10.12,2.99 -1.43,0.12 -2.56,0.21 -3.49,-0.13 l -1.32,-0.39 -2.07,-1 c -4.08,-1.61 -8.15,-2.17 -12.12,-1.85 -3.95,0.3 -7.84,1.29 -11.39,3.61"
         style="fill:#1a2545;fill-opacity:1;fill-rule:nonzero;stroke:none"
         id="path192" />
      <path
         d="m 1040.1,2922.32 c 0,0 26.04,-5.42 39.09,3.39 0,0 -12.68,-24.38 -39.09,-3.39"
         style="fill:#1a2545;fill-opacity:1;fill-rule:nonzero;stroke:none"
         id="path194" />
      <path
         d="m 992.699,2998.88 c -19.75,0 -35.812,-16.07 -35.812,-35.82 0,-19.76 16.062,-35.82 35.812,-35.82 19.751,0 35.821,16.06 35.821,35.82 0,19.75 -16.07,35.82 -35.821,35.82 z m 0,-79.14 c -23.879,0 -43.312,19.43 -43.312,43.32 0,23.88 19.433,43.32 43.312,43.32 23.891,0 43.321,-19.44 43.321,-43.32 0,-23.89 -19.43,-43.32 -43.321,-43.32"
         style="fill:#ffffff;fill-opacity:1;fill-rule:nonzero;stroke:none"
         id="path196" />
      <path
         d="m 1103.5,3004.27 c -17.09,0 -30.99,-16.06 -30.99,-35.81 0,-19.75 13.9,-35.82 30.99,-35.82 17.09,0 31,16.07 31,35.82 0,19.75 -13.91,35.81 -31,35.81 z m 0,-79.13 c -21.22,0 -38.49,19.43 -38.49,43.32 0,23.88 17.27,43.31 38.49,43.31 21.23,0 38.5,-19.43 38.5,-43.31 0,-23.89 -17.27,-43.32 -38.5,-43.32"
         style="fill:#ffffff;fill-opacity:1;fill-rule:nonzero;stroke:none"
         id="path198" />
      <path
         d="m 1034.02,2965.14 -3.5,6.63 c 1.04,0.56 25.8,13.42 40.79,-0.57 l -5.11,-5.48 c -11.13,10.39 -31.97,-0.46 -32.18,-0.58"
         style="fill:#ffffff;fill-opacity:1;fill-rule:nonzero;stroke:none"
         id="path200" />
      <path
         d="m 952.344,2959.39 -54.781,11.82 1.582,7.33 54.781,-11.82 -1.582,-7.33"
         style="fill:#ffffff;fill-opacity:1;fill-rule:nonzero;stroke:none"
         id="path202" />
      <path
         d="m 891.758,2952.96 c 2.164,0.75 4.426,0.71 6.758,0.64 2.297,-0.25 4.648,-0.87 6.828,-2.08 2.254,-1.11 4.144,-3.03 5.648,-5.17 1.567,-2.17 2.196,-4.74 2.746,-7.21 l 0.481,-2.16 -2.09,-1.47 c -2.918,-2.06 -6.195,-5.04 -7.203,-7.39 -0.473,-1.07 -0.528,-2.31 0.648,-3.86 0.942,-1.7 2.75,-2.91 4.465,-4.51 -2.324,0.01 -4.594,0.51 -6.934,1.72 -2.277,1.08 -4.476,4.4 -3.996,7.68 0.282,3.19 1.899,5.49 3.371,7.5 1.665,1.96 3.336,3.53 5.469,5.05 l -1.609,-3.62 c -0.481,3.36 -1.774,6.22 -4.324,8.71 -2.582,2.4 -6.137,4.54 -10.258,6.17"
         style="fill:#1a2545;fill-opacity:1;fill-rule:nonzero;stroke:none"
         id="path204" />
      <path
         d="m 989.359,2883.55 c 5.93,-1.6 11.411,-2.84 16.891,-3.93 5.48,-0.97 10.84,-1.95 16.29,-2.4 5.43,-0.53 10.91,-0.96 16.51,-1.05 5.64,-0.24 11.32,-0.06 17.51,-0.57 -10.1,-7.05 -22.8,-9.43 -35.05,-8.32 -6.13,0.71 -12.19,2.29 -17.75,4.98 -5.526,2.63 -10.764,6.23 -14.401,11.29"
         style="fill:#1a2545;fill-opacity:1;fill-rule:nonzero;stroke:none"
         id="path206" />
      <path
         d="m 1930.63,2463.47 v 0 c -12.19,0.87 -24.15,0.4 -24.15,0.4 0,0 -10.48,21.76 -23.37,14.51 -12.9,-7.25 -37.07,-16.12 -39.49,-22.57 -2.42,-6.45 -29.14,-43.64 -29.14,-43.64 l 24.14,-67.28 c 0,0 39.65,2.93 43.68,2.93 4.03,0 41.1,0 56.42,20.15 8.97,11.8 15.69,37.68 18.13,58.74 9.32,8 19.31,16.96 21.36,20.24 4.03,6.45 -13.76,24.18 -47.58,16.52"
         style="fill:#e46e52;fill-opacity:1;fill-rule:nonzero;stroke:none"
         id="path208" />
      <path
         d="m 1871.43,2386.01 -13.51,11.82 496.42,560.3 6.75,-5.91 -489.66,-566.21"
         style="fill:#1a2545;fill-opacity:1;fill-rule:nonzero;stroke:none"
         id="path210" />
      <path
         d="m 1956.85,2426.71 c 0,0 -53.44,-11.53 -66.28,0.52 -12.84,12.06 28.6,30.05 28.6,30.05 l 28.11,8.07 9.57,-38.64"
         style="fill:#e46e52;fill-opacity:1;fill-rule:nonzero;stroke:none"
         id="path212" />
    </g>
  </g>
</svg>
